<svg width="164" height="62" viewBox="0 0 164 62" fill="none" xmlns="http://www.w3.org/2000/svg">
<path fill-rule="evenodd" clip-rule="evenodd" d="M122.915 0.0764865C122.434 0.209404 122.174 0.406519 121.984 0.782633C121.872 1.00517 121.854 1.07368 121.83 1.38302C121.815 1.57505 121.815 1.89935 121.83 2.10363C121.854 2.44344 121.868 2.49683 121.987 2.72957C122.145 3.03928 122.355 3.24547 122.659 3.39051C122.878 3.49466 122.894 3.49717 123.351 3.49717H123.818L124.046 3.38066C124.528 3.13476 124.7 2.93175 124.864 2.4186C125.141 1.54678 124.852 0.552229 124.226 0.22886C124.053 0.139847 123.476 -0.00345282 123.304 6.35132e-05C123.237 0.00143656 123.062 0.0358311 122.915 0.0764865ZM52.3659 0.698273L52.2686 0.796162V14.2973V27.7985L52.3659 27.8964L52.4631 27.9943H53.4169H54.3706L54.4679 27.8964L54.5652 27.7985L54.566 21.2405C54.5667 14.8109 54.568 14.6796 54.6316 14.5385C54.7034 14.3794 55.3575 13.7121 55.6636 13.4858C55.7643 13.4113 55.9066 13.2947 55.9798 13.2267C56.2098 13.0129 56.8737 12.5465 57.228 12.3497C57.3653 12.2735 57.5841 12.1453 57.7141 12.0649C58.0464 11.8595 58.9622 11.4841 59.42 11.3655C59.5417 11.3341 59.7364 11.2801 59.8527 11.2456C59.9691 11.2111 60.1413 11.1827 60.2355 11.1825C60.3297 11.1823 60.4891 11.1598 60.5898 11.1326C60.7051 11.1015 60.927 11.0832 61.189 11.0832C61.451 11.0832 61.6728 11.1015 61.7881 11.1326C61.8888 11.1598 62.0311 11.1825 62.1043 11.183C62.2985 11.1843 62.985 11.4271 63.2623 11.5926C63.8288 11.9307 64.2827 12.519 64.5344 13.2415C64.6159 13.4752 64.6975 13.782 64.7158 13.9233C64.7342 14.0645 64.7719 14.2541 64.7997 14.3445C64.8443 14.4893 64.8503 15.3031 64.8503 21.1537V27.7985L64.9476 27.8964L65.0449 27.9943H66.0486H67.0523L67.1496 27.8964L67.2468 27.7985L67.2457 20.9893C67.2447 15.1614 67.2375 14.1511 67.1963 13.9792C67.1697 13.8687 67.1478 13.6932 67.1475 13.5893C67.1464 13.1745 66.8132 12.0892 66.4925 11.4555C66.0285 10.5387 65.343 9.85131 64.446 9.40347C63.8298 9.09577 63.1012 8.87213 62.7151 8.87213C62.5858 8.87213 62.388 8.84668 62.2755 8.81557C62.1177 8.7719 61.9304 8.75897 61.4552 8.75897C60.9801 8.75897 60.7928 8.7719 60.635 8.81557C60.5225 8.84668 60.3502 8.8725 60.2522 8.87294C60.1541 8.87334 59.9626 8.90348 59.8265 8.93992C59.6905 8.97632 59.5513 9.00609 59.5172 9.00609C59.4165 9.00609 58.6406 9.26874 58.2099 9.44864C57.7099 9.65755 57.0016 10.0143 56.5924 10.2635C56.0803 10.5753 55.3326 11.1206 55.0036 11.4221C54.7932 11.6149 54.6517 11.6417 54.5977 11.4988C54.5771 11.4443 54.5652 9.47259 54.5652 6.10455V0.796162L54.4679 0.698273L54.3706 0.600386H53.4169H52.4631L52.3659 0.698273ZM40.8636 3.82774L40.7686 3.90996L40.7519 6.30642L40.7353 8.70288L40.6595 8.77914L40.5837 8.85539L39.1837 8.87213L37.7837 8.88888L37.7034 8.98285C37.6232 9.07675 37.6231 9.07736 37.6231 9.91474V10.7527L37.7204 10.8506L37.8177 10.9484H39.1195C40.5814 10.9484 40.6157 10.9531 40.7032 11.1638C40.7454 11.2654 40.7519 12.1305 40.7519 17.6201C40.7519 23.8587 40.753 23.9628 40.8185 24.1933C40.8551 24.3221 40.8851 24.4737 40.8851 24.5301C40.8851 24.6748 41.0484 25.1424 41.2265 25.5076C41.6204 26.3152 42.2435 26.9491 43.0424 27.3548C43.5161 27.5954 44.3448 27.8603 44.6237 27.8603C44.707 27.8603 44.8997 27.8904 45.0519 27.9271C45.4551 28.0243 46.6001 28.0243 47.0033 27.9271C47.1555 27.8904 47.3528 27.8603 47.4417 27.8603C47.8572 27.8603 49.3401 27.4157 49.5843 27.2179C49.6773 27.1425 49.6873 27.115 49.6994 26.8989C49.7075 26.7543 49.6919 26.5706 49.6592 26.4259C49.6298 26.2958 49.6051 26.0643 49.6043 25.9114C49.6026 25.5765 49.5279 25.3325 49.3977 25.2359C49.2905 25.1565 49.3004 25.1549 48.4574 25.3963C48.1645 25.4803 47.8799 25.5494 47.825 25.5501C47.7701 25.5507 47.6138 25.5809 47.4778 25.6174C47.3417 25.6538 47.1545 25.6837 47.0617 25.6839C46.9689 25.6841 46.8106 25.7066 46.71 25.7338C46.4637 25.8003 45.7247 25.8003 45.4784 25.7338C45.3777 25.7066 45.2523 25.6841 45.1997 25.6839C45.0602 25.6834 44.4502 25.4704 44.2247 25.3437C43.9669 25.1987 43.6543 24.8805 43.5058 24.6119C43.3601 24.3485 43.1817 23.8261 43.1817 23.663C43.1817 23.5978 43.1591 23.4464 43.1315 23.3266C43.0876 23.1361 43.0824 22.3612 43.0899 17.1299L43.0985 11.1509L43.1908 11.0581L43.2831 10.9652L46.181 10.9484L49.079 10.9317L49.1593 10.8377C49.2396 10.7439 49.2396 10.7431 49.2396 9.91029C49.2396 9.07752 49.2396 9.07672 49.1593 8.98285L49.079 8.88888L46.1645 8.87213L43.2501 8.85539L43.1743 8.77914L43.0985 8.70288L43.0819 6.31024L43.0652 3.91759L42.9895 3.84134C42.9146 3.76592 42.9028 3.76498 41.9361 3.7553L40.9586 3.74553L40.8636 3.82774ZM110.461 3.82915L110.368 3.90996L110.351 6.30642L110.334 8.70288L110.259 8.77914L110.183 8.85539L108.766 8.87213L107.35 8.88888L107.269 8.98285C107.189 9.07672 107.189 9.07762 107.189 9.91029C107.189 10.743 107.189 10.7439 107.269 10.8377L107.35 10.9317L108.75 10.9484L110.15 10.9652L110.225 11.0414L110.301 11.1177L110.32 17.4546C110.338 23.2106 110.345 23.8098 110.395 23.9924C110.425 24.1029 110.45 24.2391 110.45 24.2952C110.451 24.4674 110.735 25.2593 110.933 25.6428C111.148 26.0606 111.454 26.4355 111.906 26.8369C112.309 27.1959 112.977 27.5357 113.655 27.7265C113.915 27.8 114.197 27.8602 114.281 27.8602C114.364 27.8603 114.551 27.8917 114.697 27.9301C114.939 27.994 115.027 27.9986 115.743 27.9841C116.328 27.9723 116.571 27.9547 116.707 27.9143C116.808 27.8846 116.958 27.8603 117.042 27.8603C117.236 27.8603 118.208 27.5841 118.387 27.4781C118.616 27.3432 118.653 27.281 118.667 27.0069C118.674 26.8583 118.658 26.6695 118.626 26.526C118.596 26.3961 118.572 26.1646 118.572 26.0116C118.572 25.6886 118.536 25.5365 118.434 25.427C118.337 25.3224 118.217 25.3259 117.743 25.4472C117.011 25.6343 116.789 25.6835 116.674 25.6839C116.611 25.6841 116.476 25.7066 116.376 25.7338C116.161 25.7918 115.324 25.8028 115.144 25.7498C115.08 25.731 114.924 25.7005 114.796 25.682C113.995 25.5655 113.354 25.0946 113.014 24.3723C112.959 24.2554 112.905 24.1071 112.894 24.0426C112.884 23.9781 112.846 23.8185 112.811 23.6879C112.749 23.4572 112.747 23.2727 112.756 17.2841L112.764 11.1177L112.84 11.0415L112.916 10.9652L117.375 10.9564C122.323 10.9468 122.023 10.9336 122.119 11.1638C122.161 11.2658 122.167 12.3643 122.167 19.5354V27.7896L122.248 27.8836L122.328 27.9775L123.364 27.9873L124.4 27.997L124.498 27.8978L124.597 27.7985V18.5017C124.597 8.44462 124.608 9.03814 124.425 8.93342C124.362 8.89701 123.304 8.88583 118.632 8.87213L112.916 8.85539L112.84 8.77914L112.764 8.70288L112.748 6.30642L112.731 3.90996L112.638 3.82915L112.544 3.74834H111.549H110.554L110.461 3.82915ZM135.598 8.45587C135.506 8.48148 135.314 8.50275 135.17 8.50312C135.015 8.50349 134.819 8.52968 134.688 8.56742C134.566 8.60245 134.309 8.665 134.117 8.7065C133.73 8.78988 133.589 8.83938 132.889 9.13864C132.237 9.41683 131.742 9.71883 131.063 10.2521C130.812 10.4488 130.099 11.1945 129.916 11.4508C129.3 12.3165 129.079 12.7159 128.75 13.5606C128.509 14.1779 128.401 14.5241 128.293 15.0173C128.253 15.2015 128.199 15.4457 128.173 15.5601C128.147 15.6744 128.125 15.8401 128.125 15.9284C128.125 16.0167 128.095 16.2095 128.059 16.3569C127.998 16.6043 127.993 16.744 127.993 18.182C127.993 19.6223 127.998 19.7602 128.059 20.0177C128.095 20.1708 128.125 20.3636 128.125 20.4462C128.125 20.5287 128.147 20.6897 128.173 20.804C128.2 20.9183 128.253 21.1625 128.292 21.3467C128.45 22.0885 128.769 22.9866 129.125 23.6912C129.551 24.535 130.389 25.6525 130.851 25.9934C130.954 26.0693 131.098 26.1873 131.171 26.2555C131.446 26.5123 131.857 26.7696 132.502 27.0897C132.868 27.2714 133.265 27.4521 133.384 27.4913C133.859 27.6477 134.755 27.8603 134.94 27.8609C135.046 27.8612 135.244 27.8911 135.381 27.9273C135.593 27.9831 135.742 27.9931 136.363 27.9932C136.908 27.9932 137.147 27.9802 137.295 27.9424C137.405 27.9144 137.63 27.8783 137.795 27.862C138.241 27.818 138.701 27.7112 139.259 27.5222C140.457 27.1166 141.269 26.5743 142.238 25.5327C142.786 24.9442 143.239 24.1837 143.604 23.2375C143.813 22.6981 143.844 22.5009 143.739 22.3886C143.667 22.3112 143.334 22.2183 142.638 22.0815C142.482 22.0509 142.236 21.9967 142.092 21.9611C141.943 21.9243 141.787 21.9053 141.733 21.9172C141.602 21.9464 141.503 22.0925 141.342 22.4965C141.153 22.9734 141.084 23.1021 140.791 23.5308C140.513 23.9377 140.209 24.2991 139.975 24.5022C139.215 25.1608 138.508 25.4982 137.562 25.6535C137.452 25.6715 137.28 25.7033 137.179 25.7241C136.863 25.7894 136.121 25.7964 135.89 25.7362C135.779 25.7073 135.623 25.6832 135.543 25.6827C135.463 25.6823 135.338 25.6659 135.265 25.6464C135.192 25.6268 135.047 25.5912 134.944 25.5673C134.421 25.4464 133.89 25.2287 133.401 24.9355C133.046 24.7222 132.947 24.6401 132.507 24.1937C131.938 23.6158 131.737 23.3391 131.412 22.6863C131.146 22.1521 131.001 21.7681 130.873 21.263C130.824 21.0696 130.755 20.7965 130.719 20.6562C130.684 20.5158 130.655 20.3397 130.655 20.2648C130.655 20.1899 130.63 20.0259 130.6 19.9004C130.518 19.5578 130.517 16.801 130.599 16.4637C130.63 16.3382 130.655 16.1799 130.654 16.112C130.653 15.9804 130.726 15.654 130.914 14.9504C131.031 14.5133 131.289 13.8308 131.433 13.5785C131.476 13.5042 131.575 13.3307 131.653 13.1929C131.848 12.8524 132.271 12.3074 132.527 12.0672C132.799 11.8124 133.451 11.3672 133.834 11.1744C134.158 11.0109 134.611 10.8559 135.032 10.7641C135.178 10.7321 135.414 10.6776 135.555 10.643C135.763 10.5923 135.94 10.5801 136.471 10.5801C136.833 10.5801 137.182 10.5957 137.246 10.6148C137.31 10.6339 137.512 10.6802 137.695 10.7175C138.62 10.9066 139.524 11.3949 140.145 12.042C140.552 12.4665 141.01 13.1512 141.224 13.6565C141.292 13.8156 141.383 13.9946 141.428 14.0543C141.566 14.2401 141.551 14.241 142.654 13.9782C142.911 13.9171 143.232 13.841 143.368 13.8091C143.631 13.7475 143.769 13.651 143.769 13.5287C143.769 13.418 143.449 12.5799 143.268 12.2173C142.772 11.2235 141.869 10.1972 140.981 9.6193C140.329 9.19497 139.213 8.73225 138.606 8.63467C138.489 8.61595 138.33 8.57881 138.251 8.55218C138.173 8.52556 138 8.50359 137.868 8.50336C137.736 8.50315 137.546 8.48072 137.445 8.45352C137.195 8.38604 135.841 8.38775 135.598 8.45587ZM7.48347 8.57251C7.31006 8.60874 7.04374 8.6355 6.85106 8.636C6.66799 8.63647 6.41336 8.65871 6.28521 8.6854C6.15706 8.71209 5.95486 8.74987 5.83586 8.76936C5.71687 8.78881 5.54089 8.81993 5.44476 8.83844C5.34863 8.85696 5.19885 8.88577 5.11191 8.90241C4.48272 9.0229 3.41141 9.3531 2.55728 9.68983C1.99965 9.90965 1.02167 10.4033 0.942088 10.5051C0.855114 10.6163 0.859207 10.7085 0.962058 10.9544C1.00919 11.067 1.08491 11.2663 1.13028 11.3971C1.22824 11.6794 1.42233 12.1802 1.51163 12.3809C1.57767 12.5294 1.69214 12.6038 1.79975 12.5682C1.83197 12.5575 2.10543 12.4277 2.4075 12.2796C2.70956 12.1316 3.06904 11.969 3.20634 11.9183C3.72209 11.7279 5.00177 11.3169 5.07616 11.3177C5.1187 11.3182 5.28083 11.2888 5.43644 11.2524C5.75541 11.1778 5.99057 11.1326 6.40171 11.067C6.55732 11.0421 6.75203 11.0046 6.83441 10.9836C6.9378 10.9573 7.38635 10.9489 8.28232 10.9565C9.65862 10.9683 9.60233 10.963 10.3953 11.1559C10.9275 11.2853 11.5239 11.5988 11.9055 11.9495C12.0571 12.0889 12.3494 12.4945 12.4605 12.7198C12.6098 13.0226 12.7787 13.5318 12.8622 13.931C12.9313 14.2613 12.9355 14.3687 12.9388 15.8786C12.9422 17.475 12.9422 17.4766 12.8701 17.5493C12.7636 17.6567 12.5278 17.669 12.2228 17.5829C12.0329 17.5293 11.8781 17.5123 11.5802 17.5123C11.3245 17.5123 11.1165 17.4933 10.9832 17.4579C10.6753 17.3762 7.68232 17.3756 7.37883 17.4572C7.25467 17.4906 7.04534 17.5123 6.84613 17.5123C6.61779 17.5123 6.44721 17.5326 6.28521 17.5792C6.1572 17.6161 5.98777 17.6462 5.90876 17.6462C5.56266 17.6462 3.94171 18.1119 3.34164 18.3838C1.98734 18.9973 1.07899 19.7631 0.569361 20.7208C0.330042 21.1704 0.14541 21.6714 0.107764 21.9732C0.0917876 22.1012 0.0611314 22.2687 0.0396625 22.3456C-0.0203505 22.5604 -0.0100312 23.4446 0.0555737 23.7077C0.0854304 23.8274 0.110161 23.9781 0.110527 24.0426C0.111826 24.2605 0.306476 24.8578 0.509548 25.2671C0.68283 25.6164 1.01901 26.1197 1.25457 26.3825C1.42575 26.5735 2.08283 27.0297 2.46099 27.2202C3.0702 27.527 3.24871 27.5868 4.22839 27.8127C4.34199 27.8389 4.58165 27.8609 4.76095 27.8615C4.94023 27.8621 5.20677 27.8844 5.35323 27.9111C5.6911 27.9725 6.06267 27.972 6.3185 27.9099C6.42834 27.8832 6.66699 27.8611 6.84886 27.8609C7.03073 27.8606 7.26289 27.8387 7.36478 27.8121C7.46667 27.7856 7.69983 27.7316 7.88289 27.692C8.35291 27.5903 8.70211 27.4822 9.31415 27.249C9.91279 27.0209 10.892 26.5428 11.3042 26.2772C11.8478 25.9271 12.3804 25.5525 12.5761 25.3828C12.7818 25.2043 12.985 25.0807 13.0727 25.0807C13.1546 25.0807 13.2466 25.2066 13.3257 25.4265C13.4386 25.7406 13.6725 26.1976 13.8482 26.4475C14.265 27.0403 14.815 27.4238 15.656 27.7079C15.9026 27.7913 16.1593 27.8596 16.2265 27.8599C16.2937 27.8601 16.4809 27.892 16.6426 27.9306C17.0206 28.0211 17.2345 28.0055 17.3422 27.8795C17.4089 27.8015 17.4191 27.7532 17.4196 27.5152C17.4198 27.3642 17.441 27.1504 17.4667 27.0398C17.4923 26.9293 17.5238 26.6871 17.5366 26.5015C17.5698 26.0223 17.504 25.9214 17.0696 25.7846C16.8312 25.7096 16.2801 25.4024 16.1132 25.2515C15.7235 24.8991 15.3554 24.1434 15.3554 23.6956C15.3554 23.6007 15.3372 23.4704 15.3149 23.4061C15.2841 23.3173 15.2698 22.1192 15.2555 18.4332C15.235 13.1697 15.2502 13.6221 15.0674 12.8573C15.0388 12.7376 15.003 12.5794 14.988 12.5057C14.9536 12.3376 14.7037 11.7105 14.5476 11.4005C14.3627 11.0334 14.1309 10.7291 13.7186 10.3122C13.2746 9.86317 12.9506 9.62198 12.443 9.36248C12.1095 9.19205 11.2611 8.87213 11.1425 8.87213C11.1155 8.87213 10.9852 8.84303 10.8529 8.8075C10.4583 8.70151 10.2351 8.66537 9.79679 8.63664C9.56795 8.6216 9.28336 8.5858 9.16437 8.55703C8.8462 8.48014 7.88303 8.48902 7.48347 8.57251ZM77.2324 8.57194C77.1134 8.60563 76.9685 8.63423 76.9105 8.63547C76.7495 8.63888 76.2638 8.75941 75.8011 8.91071C75.2545 9.08948 74.3949 9.52362 73.816 9.9133C73.4173 10.1817 73.2708 10.3083 72.7368 10.8467C72.1913 11.3968 72.0801 11.5283 71.7864 11.9709C71.2349 12.8022 70.8337 13.7195 70.5115 14.8865C70.4551 15.0909 70.4089 15.3019 70.4089 15.3555C70.4089 15.4091 70.379 15.5583 70.3424 15.6871C70.3057 15.8159 70.2756 15.9816 70.2753 16.0554C70.275 16.1291 70.2514 16.2874 70.2228 16.4071C70.146 16.7286 70.1462 19.7345 70.223 20.0574C70.2515 20.1771 70.275 20.3354 70.2753 20.4091C70.2756 20.4829 70.3057 20.6486 70.3424 20.7774C70.379 20.9062 70.4089 21.0569 70.4088 21.1122C70.4087 21.2147 70.4691 21.4519 70.6475 22.05C70.8564 22.7503 71.2939 23.6587 71.7683 24.3775C72.0443 24.7956 72.1676 24.9426 72.6552 25.4352C73.3637 26.1509 73.8097 26.4893 74.6195 26.9256C75.0826 27.1751 76.0774 27.5342 76.6998 27.6767C76.9103 27.7249 77.1755 27.7859 77.2892 27.8123C77.4028 27.8387 77.5926 27.8603 77.7109 27.8603C77.8293 27.8603 78.0578 27.8918 78.2189 27.9303C78.49 27.995 78.5819 27.9991 79.4614 27.9845C80.1872 27.9724 80.4582 27.956 80.6108 27.915C80.7207 27.8855 80.9305 27.8611 81.077 27.8609C81.2236 27.8606 81.3958 27.8445 81.4598 27.8253C81.5238 27.806 81.6884 27.7691 81.8257 27.7432C83.0583 27.5115 84.3686 27.0604 85.4972 26.4792C85.9545 26.2437 86.0529 26.1589 86.0529 26.0007C86.0529 25.9358 85.6306 24.6886 85.5033 24.3775C85.3957 24.1145 85.3365 24.0426 85.2277 24.0426C85.1823 24.0426 84.8738 24.1784 84.5422 24.3443C83.5469 24.8424 81.9205 25.3549 81.0875 25.4331C80.9651 25.4446 80.7854 25.4753 80.688 25.5014C80.5532 25.5375 80.2646 25.5487 79.4791 25.5484C78.5578 25.548 78.4208 25.5409 78.1999 25.4818C78.0638 25.4454 77.9115 25.4156 77.8614 25.4156C77.5462 25.4156 76.5063 25.0795 75.9675 24.8035C74.9982 24.3069 74.2819 23.6755 73.7302 22.8314C73.4176 22.353 73.3097 22.1408 73.1202 21.6311C72.9486 21.1694 72.7056 20.2484 72.7056 20.0594C72.7056 19.9875 72.6747 19.7976 72.6368 19.6373C72.579 19.3925 72.5697 19.2607 72.5786 18.815C72.5885 18.3145 72.5934 18.2798 72.6649 18.208L72.7407 18.1318L79.6622 18.1151L86.5837 18.0983L86.6594 18.0219C86.7311 17.9498 86.7352 17.9201 86.7344 17.4861C86.7338 17.1694 86.7157 16.9518 86.6762 16.7857C86.6425 16.6443 86.6184 16.4088 86.618 16.2163C86.6175 15.9979 86.5952 15.8048 86.5514 15.6392C86.5152 15.5023 86.4856 15.3416 86.4856 15.2821C86.4856 15.048 86.1402 13.7916 85.9341 13.2759C85.7276 12.7592 85.4319 12.1992 85.1043 11.7045C84.8445 11.3122 84.6937 11.1305 84.2477 10.6725C83.76 10.1717 83.6582 10.0852 83.2212 9.79914C82.6743 9.44124 82.4462 9.31951 81.8749 9.0806C81.4851 8.91761 80.4934 8.63771 80.3057 8.63771C80.2537 8.63771 80.1064 8.60757 79.9784 8.57073C79.7646 8.50921 79.6519 8.50402 78.5972 8.50721C77.5922 8.51022 77.4217 8.51829 77.2324 8.57194ZM154.104 8.53926C154.013 8.55419 153.848 8.58239 153.738 8.60188C153.628 8.62137 153.411 8.63758 153.256 8.63791C153.1 8.63825 152.89 8.66075 152.79 8.68794C152.689 8.71514 152.532 8.73758 152.441 8.73778C152.35 8.73801 152.155 8.76695 152.008 8.80211C151.861 8.83727 151.659 8.88375 151.558 8.90545C151.042 9.0165 150.675 9.11235 150.36 9.21864C150.167 9.28334 149.928 9.35819 149.827 9.38495C149.521 9.46639 148.376 9.93772 147.903 10.1773C147.489 10.3871 147.331 10.5165 147.331 10.6463C147.331 10.6973 147.415 10.9633 147.517 11.2373C147.619 11.5113 147.76 11.891 147.83 12.081C147.9 12.2711 147.983 12.4557 148.015 12.4913C148.111 12.5979 148.257 12.5702 148.634 12.3738C149.488 11.9295 151.042 11.3934 152.007 11.2102C152.099 11.1928 152.279 11.1569 152.407 11.1304C152.535 11.1038 152.775 11.0678 152.939 11.0503C153.104 11.0328 153.291 11.0027 153.355 10.9835C153.427 10.9618 153.95 10.9484 154.727 10.9484C156.104 10.9484 156.044 10.942 156.934 11.1858C157.578 11.3625 158.02 11.6215 158.448 12.0743C158.93 12.5833 159.347 13.6084 159.347 14.2825C159.347 14.4173 159.37 14.6273 159.398 14.7492C159.44 14.9318 159.447 15.191 159.439 16.2239C159.43 17.4661 159.429 17.4776 159.356 17.551C159.248 17.66 158.962 17.6727 158.644 17.5828C158.454 17.5293 158.299 17.5123 158.001 17.5123C157.746 17.5123 157.538 17.4933 157.404 17.4579C157.096 17.3762 154.103 17.3756 153.8 17.4572C153.679 17.4899 153.462 17.5129 153.267 17.5137C153.066 17.5146 152.888 17.5341 152.806 17.5642C152.733 17.5911 152.583 17.6216 152.473 17.6318C151.887 17.6866 150.653 18.0169 149.968 18.3022C148.906 18.7444 148.215 19.2088 147.591 19.8988C147.246 20.2801 146.97 20.6925 146.828 21.0361C146.66 21.4429 146.499 22.0567 146.499 22.2905C146.499 22.4058 146.474 22.6111 146.445 22.7468C146.395 22.9739 146.395 23.0121 146.445 23.2316C146.474 23.3626 146.499 23.5822 146.499 23.7197C146.499 23.8755 146.524 24.0496 146.565 24.1819C146.601 24.2987 146.631 24.4206 146.631 24.4529C146.632 24.5459 146.812 25.0435 146.929 25.2778C147.147 25.7112 147.394 26.0411 147.783 26.417C148.195 26.8163 148.447 26.996 148.961 27.2585C149.379 27.4723 149.544 27.5302 150.258 27.7122C150.747 27.8372 150.888 27.8603 151.162 27.8603C151.34 27.8603 151.603 27.8829 151.746 27.9105C152.073 27.9734 152.479 27.9731 152.74 27.9099C152.849 27.8832 153.086 27.8611 153.265 27.8609C153.445 27.8606 153.684 27.8387 153.798 27.8124C153.912 27.786 154.154 27.7314 154.337 27.6909C154.89 27.5689 155.767 27.2651 156.384 26.9823C157.501 26.4704 158.139 26.0772 159.225 25.2319C159.432 25.0702 159.538 25.0456 159.622 25.1393C159.651 25.1716 159.748 25.3788 159.837 25.5998C159.926 25.8208 160.073 26.1147 160.164 26.2529C160.455 26.6989 161.063 27.2523 161.508 27.4771C161.811 27.6303 162.512 27.86 162.677 27.8602C162.761 27.8602 162.941 27.8901 163.077 27.9265C163.46 28.029 163.674 28.0086 163.766 27.8606C163.858 27.7114 163.94 27.2601 163.94 26.8975C163.94 26.6964 163.957 26.4475 163.977 26.3443C164.045 26.0058 163.985 25.9396 163.454 25.765C163.071 25.6392 162.853 25.4975 162.509 25.1493C162.138 24.7742 161.957 24.4553 161.825 23.9439L161.743 23.6275L161.742 18.9038C161.741 14.8969 161.734 14.1496 161.693 13.9792C161.666 13.8687 161.644 13.6896 161.644 13.5813C161.644 13.473 161.612 13.2621 161.575 13.1125C161.537 12.9629 161.475 12.72 161.438 12.5727C161.159 11.4662 160.477 10.435 159.612 9.80912C159.229 9.53233 158.339 9.07986 157.949 8.96413C157.681 8.88469 157.327 8.80033 156.8 8.69036C156.672 8.66363 156.395 8.63349 156.185 8.62341C155.974 8.61333 155.712 8.58252 155.602 8.55493C155.383 8.49997 154.408 8.48976 154.104 8.53926ZM19.9939 8.77063C19.9547 8.78697 19.8985 8.83493 19.8691 8.87719C19.8204 8.94718 19.8158 9.56445 19.8177 15.8034C19.8188 19.5706 19.8317 22.7583 19.8464 22.8872C19.9125 23.4694 20.0679 24.1573 20.2322 24.5952C20.5323 25.3949 20.8882 25.9524 21.4517 26.5054C21.7834 26.8308 21.9432 26.958 22.2803 27.1651C22.51 27.3062 22.8241 27.4685 22.9783 27.5257C23.3654 27.6693 24.1078 27.8602 24.2817 27.8609C24.3608 27.8612 24.5379 27.8911 24.6752 27.9273C25.0391 28.0232 26.0682 28.0231 26.4664 27.9271C26.6186 27.8904 26.8032 27.8603 26.8766 27.8603C27.1591 27.8603 28.3803 27.4916 28.9357 27.2387C29.474 26.9935 30.2997 26.5552 30.6 26.3551C30.9735 26.1063 31.7172 25.5456 31.972 25.3208C32.1986 25.1209 32.2837 25.0861 32.3595 25.1622C32.4072 25.2101 32.4161 25.3609 32.4306 26.3705L32.4473 27.524L32.5396 27.6168L32.6319 27.7096H33.5955C34.5538 27.7096 34.5595 27.7092 34.6349 27.6333L34.7107 27.557L34.7192 18.2502L34.7277 8.94326L34.6472 8.84909L34.5668 8.75492L33.5974 8.74511L32.6281 8.73526L32.5294 8.83463L32.4306 8.93395V15.5014C32.4306 21.0498 32.4234 22.0856 32.3841 22.1767C32.3143 22.3385 31.503 23.1238 31.0493 23.4687C30.8296 23.6357 30.5736 23.8319 30.4804 23.9048C30.144 24.1676 29.7392 24.4092 29.0855 24.7373C28.3288 25.1172 27.9526 25.2632 27.2881 25.4351L26.8221 25.5557L25.8568 25.5562L24.8916 25.5567L24.4589 25.4151C24.2209 25.3372 23.9513 25.2356 23.8597 25.1894C23.3081 24.9109 22.9518 24.5231 22.5997 23.8179C22.4354 23.4886 22.2462 22.8378 22.2442 22.5946C22.2436 22.5161 22.2213 22.3614 22.1948 22.2509C22.1536 22.079 22.1465 21.1027 22.1461 15.4964L22.1456 8.94286L22.0653 8.84889L21.985 8.75492L21.0251 8.74792C20.4972 8.74407 20.0332 8.75429 19.9939 8.77063ZM98.3851 8.7718C98.2569 8.78774 98.0997 8.81685 98.0358 8.83647C97.9718 8.85609 97.8113 8.87213 97.6791 8.87213C97.5469 8.87213 97.3746 8.8935 97.2961 8.91959C97.2177 8.94571 97.0056 9.00612 96.8249 9.05384C96.1004 9.2452 95.2756 9.59077 94.3908 10.0735C93.7737 10.4103 92.8866 11.0435 92.4568 11.4539C92.2135 11.6862 92.0942 11.73 92.0053 11.6196C91.949 11.5495 91.9444 11.4595 91.9444 10.4231V9.30233L91.8456 9.20294L91.7468 9.10351L90.8275 9.11342L89.9081 9.1233L89.8279 9.21727L89.7476 9.31124V18.5504V27.7896L89.8279 27.8836L89.9082 27.9775H90.9125H91.9169L91.9972 27.8836L92.0775 27.7896L92.0783 21.2193C92.079 14.9364 92.0817 14.6431 92.1396 14.515C92.2273 14.3212 93.1266 13.4598 93.6713 13.048C94.2004 12.6479 94.7823 12.2709 95.2734 12.01C95.9998 11.6242 97.2695 11.1834 97.6574 11.1825C97.7464 11.1823 97.9016 11.1598 98.0023 11.1326C98.1175 11.1015 98.3394 11.0832 98.6014 11.0832C98.8634 11.0832 99.0853 11.1015 99.2005 11.1326C99.3012 11.1598 99.4546 11.1823 99.5413 11.1825C99.6281 11.1827 99.8452 11.2295 100.024 11.2866C101.121 11.637 101.729 12.2946 102.097 13.5309C102.193 13.8507 102.23 14.035 102.23 14.1941C102.23 14.3154 102.256 14.4974 102.287 14.5987C102.339 14.7687 102.345 15.2857 102.361 21.3078L102.379 27.8327L102.474 27.9148L102.569 27.997L103.58 27.9873C104.582 27.9776 104.592 27.9768 104.667 27.9012L104.743 27.825L104.751 21.2537C104.759 15.4826 104.754 14.6552 104.71 14.4582C104.682 14.3348 104.659 14.1088 104.659 13.9558C104.659 13.7929 104.631 13.5668 104.593 13.4099C104.557 13.2625 104.527 13.0987 104.527 13.0459C104.526 12.9491 104.306 12.2307 104.148 11.8109C103.956 11.3006 103.577 10.7565 103.049 10.2331C102.628 9.81645 102.327 9.60031 101.85 9.37225C101.321 9.11945 100.486 8.87247 100.158 8.87173C100.062 8.87153 99.9024 8.8498 99.8041 8.82351C99.5842 8.7646 98.7014 8.73245 98.3851 8.7718ZM79.762 10.7631C80.1846 10.8581 80.8271 11.0798 81.1823 11.253C81.5395 11.4272 82.0951 11.8232 82.3762 12.1038C82.846 12.5729 83.2904 13.2491 83.5697 13.9198C83.7362 14.3199 83.956 15.024 83.956 15.1576C83.956 15.2049 83.9877 15.3603 84.0265 15.5027C84.0885 15.7305 84.0916 15.7733 84.0515 15.8574C84.0264 15.91 83.9684 15.9721 83.9227 15.9954C83.8566 16.029 82.7285 16.0379 78.4539 16.0382C73.7918 16.0387 73.0558 16.0322 72.9743 15.9898C72.8149 15.9068 72.8015 15.7811 72.9068 15.3578C73.1554 14.3583 73.6777 13.2374 74.1187 12.7568C74.1779 12.6924 74.2958 12.5469 74.3807 12.4336C74.5472 12.2115 75.0571 11.7877 75.4688 11.5292C76.2209 11.0569 77.0076 10.7785 77.7816 10.7108C78.2632 10.6686 79.4854 10.7009 79.762 10.7631ZM10.8904 19.6354C10.9937 19.6612 11.2679 19.692 11.4996 19.7039C11.7313 19.7157 11.9709 19.7409 12.0321 19.7598C12.0933 19.7788 12.283 19.8058 12.4535 19.82C12.7277 19.8428 12.774 19.8561 12.8529 19.9356L12.9422 20.0255V21.1884V22.3514L12.8638 22.4782C12.7186 22.7133 11.602 23.6115 10.8037 24.1356C10.3559 24.4294 9.1443 25.0469 8.69838 25.2084C8.25436 25.3692 7.63505 25.5494 7.52085 25.5511C7.46367 25.5519 7.35699 25.5771 7.28376 25.6071C7.17356 25.6523 6.97594 25.664 6.13713 25.6749C5.02198 25.6894 4.97301 25.6835 4.2204 25.4437C3.39423 25.1806 2.75979 24.5429 2.59319 23.8082C2.56603 23.6884 2.52163 23.4434 2.49454 23.2636C2.44867 22.9595 2.4497 22.9103 2.50932 22.5603C2.59007 22.0863 2.64059 21.9491 2.85994 21.6077C3.35845 20.832 4.32944 20.2481 5.66062 19.9236C6.39189 19.7454 6.4773 19.7286 6.779 19.7043C6.94076 19.6913 7.14297 19.6613 7.22834 19.6376C7.4636 19.5724 10.6301 19.5705 10.8904 19.6354ZM157.278 19.6354C157.382 19.6611 157.661 19.6916 157.899 19.7032C158.137 19.7147 158.414 19.7462 158.515 19.7732C158.615 19.8001 158.792 19.8224 158.907 19.8226C159.022 19.8228 159.168 19.8451 159.232 19.872C159.436 19.9574 159.447 20.0236 159.447 21.1625C159.447 22.2846 159.446 22.2904 159.218 22.5641C159.095 22.7113 158.975 22.8181 158.381 23.3083C157.746 23.8335 156.427 24.6673 155.868 24.8972C155.722 24.9575 155.445 25.0754 155.253 25.1592C154.928 25.3008 154.477 25.4351 153.735 25.6115C153.462 25.6764 153.337 25.6835 152.488 25.6835C151.654 25.6835 151.51 25.6756 151.259 25.6155C150.598 25.4568 150.365 25.3633 149.954 25.0909C149.462 24.7647 149.241 24.4546 149.032 23.7994C148.935 23.4934 148.928 23.4404 148.928 22.9705C148.928 22.5039 148.935 22.4488 149.024 22.1897C149.15 21.826 149.2 21.7315 149.429 21.4305C149.672 21.1113 149.77 21.0206 150.166 20.7466C150.781 20.3218 151.546 20.0224 152.484 19.8384C152.619 19.8121 152.783 19.776 152.85 19.7581C152.918 19.7402 153.115 19.7104 153.289 19.6918C153.463 19.6732 153.65 19.6437 153.705 19.6262C153.762 19.608 154.51 19.5931 155.448 19.5915C156.75 19.5892 157.129 19.5982 157.278 19.6354Z" fill="#F6F6F6"/>
<path fill-rule="evenodd" clip-rule="evenodd" d="M20.7627 34.0992L20.6661 34.1984V47.8795V61.5607L20.7627 61.6599L20.8594 61.759H21.7903H22.7212L22.8179 61.6599L22.9145 61.5607V47.8795V34.1984L22.8179 34.0992L22.7212 34H21.7903H20.8594L20.7627 34.0992ZM47.3144 34.0992L47.2177 34.1984V47.8795V61.5607L47.3144 61.6599L47.411 61.759H48.3585H49.3059L49.4026 61.6599L49.4992 61.5607V61.1244C49.4992 60.4546 49.546 60.4247 50.1263 60.7234C50.788 61.064 51.6961 61.4049 52.3925 61.5742C52.5925 61.6228 52.8199 61.6843 52.8979 61.7108C52.9758 61.7373 53.0948 61.7594 53.1624 61.7599C53.2299 61.7603 53.3958 61.7908 53.531 61.8277C53.6661 61.8646 53.8521 61.895 53.9443 61.8952C54.0365 61.8954 54.1937 61.9181 54.2937 61.9457C54.5566 62.0181 56.4446 62.0181 56.7075 61.9457C56.8075 61.9181 56.9861 61.8951 57.1043 61.8944C57.2225 61.8937 57.4298 61.863 57.565 61.8261C57.7001 61.7892 57.8428 61.759 57.882 61.759C57.9591 61.759 58.6575 61.5322 58.8733 61.437C59.1364 61.321 59.6682 61.0374 59.7871 60.9496C59.8541 60.9002 60.0517 60.7404 60.2263 60.5946C60.9947 59.9526 61.5532 58.9428 61.7969 57.7547C61.8371 57.5587 61.8988 57.282 61.934 57.1398C61.9958 56.8902 61.998 56.7144 61.9989 52.1004C61.9998 46.7643 62.0253 47.416 61.7731 46.3179C61.6234 45.666 61.3893 45.1128 61.007 44.5074C60.7679 44.1288 60.1193 43.46 59.736 43.1969C59.1698 42.8083 58.3098 42.5 57.468 42.3839C57.3316 42.3651 57.1681 42.3341 57.1045 42.315C56.9545 42.2698 55.7002 42.2698 55.55 42.3149C55.4865 42.334 55.2857 42.371 55.1038 42.3971C54.922 42.4232 54.6839 42.4627 54.5748 42.4849C54.2948 42.5418 53.19 42.9137 52.9716 43.0246C52.8713 43.0756 52.7 43.1532 52.5909 43.1971C52.4817 43.2409 52.3404 43.3094 52.2767 43.3492C52.2131 43.3889 51.9973 43.5103 51.7973 43.6189C51.2808 43.8993 50.4481 44.4874 50.0476 44.8545C49.6733 45.1976 49.5153 45.2651 49.4184 45.1232C49.3724 45.0557 49.367 44.478 49.367 39.6231V34.1984L49.2703 34.0992L49.1737 34H48.2923H47.411L47.3144 34.0992ZM7.5225 42.2763C7.23152 42.2878 6.97632 42.3086 6.95539 42.3226C6.93446 42.3365 6.80798 42.3701 6.67433 42.3973C6.1024 42.5135 5.91207 42.5644 5.5055 42.7101C4.94328 42.9114 4.18989 43.2997 3.65383 43.6643C2.90373 44.1744 1.77709 45.3866 1.47071 46.0131C1.42051 46.1157 1.32026 46.299 1.24794 46.4203C1.1756 46.5416 1.07557 46.7401 1.02561 46.8615C0.975616 46.9828 0.875095 47.2271 0.802219 47.4044C0.729309 47.5817 0.623269 47.8795 0.566562 48.0662C0.428778 48.5196 0.231541 49.3717 0.231541 49.5135C0.231541 49.5761 0.201782 49.7342 0.16541 49.8647C0.11601 50.042 0.0991467 50.2051 0.0987499 50.5094C0.0984524 50.7468 0.0782827 51.0016 0.0503423 51.1203C-0.0167808 51.4056 -0.0167808 52.7355 0.0503423 53.0207C0.0785142 53.1404 0.0987826 53.3992 0.0995431 53.6485C0.100502 53.9599 0.118225 54.1398 0.166203 54.3249C0.202145 54.4636 0.231707 54.624 0.231939 54.6812C0.232137 54.7385 0.25429 54.8693 0.281139 54.972C0.307989 55.0746 0.330077 55.1968 0.330209 55.2435C0.33054 55.3561 0.568546 56.1959 0.714927 56.6009C0.876485 57.0479 0.939574 57.1931 1.21074 57.7421C1.59847 58.5271 1.9235 58.9854 2.57552 59.6664C3.45381 60.5836 4.47022 61.2167 5.65429 61.584C6.27983 61.778 6.75197 61.8946 6.91422 61.8952C6.97599 61.8954 7.10835 61.9181 7.20837 61.9457C7.34864 61.9843 7.60586 61.9958 8.3326 61.9958C9.05935 61.9958 9.31657 61.9843 9.45683 61.9457C9.55686 61.9181 9.70565 61.8951 9.78749 61.8944C9.86933 61.8937 10.0469 61.863 10.182 61.8261C10.3172 61.7892 10.4633 61.759 10.5068 61.759C10.6771 61.759 11.5923 61.4128 12.0718 61.1671C13.5573 60.4056 14.4364 59.4936 15.1947 57.9272C15.4259 57.4497 15.6548 56.8734 15.6947 56.6683C15.7515 56.3773 15.6048 56.2842 14.83 56.1192C14.7391 56.0999 14.485 56.04 14.2655 55.9861C13.6117 55.8258 13.5801 55.8374 13.3819 56.3124C13.0935 57.004 12.8564 57.4157 12.4112 57.9985C12.1321 58.3639 11.9938 58.4985 11.54 58.8463C11.0877 59.1931 10.2769 59.5531 9.72043 59.6543C9.60272 59.6758 9.43306 59.7152 9.34335 59.742C9.0818 59.8203 7.81367 59.8102 7.48031 59.7273C7.33984 59.6924 7.07753 59.6293 6.89743 59.5871C6.5101 59.4964 5.78245 59.206 5.46317 59.0146C5.0975 58.7955 4.87104 58.6035 4.4104 58.1221C3.90674 57.5958 3.64652 57.2134 3.32595 56.5286C3.0442 55.9267 2.74548 54.9597 2.74409 54.645C2.74386 54.5915 2.7141 54.451 2.67796 54.3327C2.64093 54.2115 2.61173 54.0189 2.61107 53.8915C2.61044 53.7672 2.58835 53.5739 2.562 53.4619C2.49286 53.1681 2.49286 50.973 2.562 50.6792C2.58835 50.5672 2.61044 50.3839 2.61107 50.2719C2.61173 50.1598 2.64202 49.9613 2.67839 49.8308C2.71476 49.7003 2.74452 49.555 2.74452 49.5079C2.74452 49.2076 3.12088 48.0544 3.41506 47.4533C3.73927 46.7908 4.44743 45.9213 5.02605 45.4752C5.33842 45.2344 6.13602 44.818 6.49148 44.71C7.06451 44.536 7.26197 44.4858 7.3737 44.4855C7.43735 44.4853 7.57127 44.4626 7.67129 44.4351C7.8884 44.3753 8.88096 44.3644 9.06028 44.4199C9.1238 44.4396 9.30225 44.4693 9.45683 44.486C9.99206 44.5438 10.8645 44.8991 11.4371 45.2925C11.7774 45.5262 12.3581 46.1248 12.6351 46.5272C12.7424 46.6831 12.9571 47.0662 13.1123 47.3785C13.2791 47.7144 13.4228 47.9622 13.464 47.9848C13.5037 48.0066 13.5988 48.0148 13.6858 48.0039C14.068 47.9562 14.2821 47.918 14.4501 47.8676C14.5499 47.8376 14.7729 47.7816 14.9457 47.7431C15.496 47.6204 15.6401 47.5385 15.6401 47.3486C15.6401 47.0423 15.1848 46.0143 14.7367 45.3089C14.5016 44.9387 14.3648 44.7701 13.9627 44.3549C13.2368 43.6053 12.8245 43.3131 11.9037 42.8957C11.2907 42.6179 10.8589 42.48 10.3496 42.3995C10.2678 42.3866 10.1264 42.3555 10.0355 42.3306C9.83947 42.2767 8.33432 42.2442 7.5225 42.2763ZM27.9722 42.7175L27.8739 42.8184L27.8827 49.8539C27.8909 56.4501 27.8951 56.9063 27.9502 57.1608C27.9825 57.3101 28.0323 57.5621 28.0609 57.7207C28.1828 58.3966 28.5216 59.2497 28.8902 59.8087C29.0171 60.0013 29.241 60.2637 29.4994 60.5229C29.8396 60.8642 29.9764 60.9743 30.3179 61.1822C30.5793 61.3413 30.8723 61.4852 31.1264 61.5794C31.5945 61.7529 32.107 61.8948 32.2658 61.8948C32.3277 61.8948 32.467 61.9184 32.5755 61.9472C32.7355 61.9898 32.9371 61.9975 33.6384 61.9882C34.5298 61.9763 34.5657 61.972 35.2976 61.7931C35.9641 61.6301 36.2974 61.5274 36.6312 61.3824C36.807 61.3059 37.0476 61.2013 37.1658 61.1498C37.9842 60.7932 39.2781 59.919 40.0174 59.223C40.1356 59.1117 40.237 59.0442 40.2861 59.0442C40.4511 59.0442 40.4546 59.0691 40.4723 60.3719C40.4888 61.5808 40.4893 61.588 40.5641 61.6648C40.6383 61.7409 40.6529 61.7422 41.5489 61.7521L42.4583 61.7621L42.5565 61.6614L42.6547 61.5607V52.1893V42.8179L42.558 42.7187L42.4614 42.6196H41.5139H40.5664L40.4698 42.7187L40.3731 42.8179V49.473C40.3731 54.9927 40.3655 56.1466 40.3284 56.2372C40.2836 56.3465 40.0844 56.5454 39.4614 57.1033C38.1009 58.3217 36.638 59.1445 35.2645 59.4642C34.5851 59.6224 34.5042 59.6335 33.9448 59.6466C33.527 59.6563 33.3304 59.6467 33.1677 59.6086C33.0479 59.5805 32.883 59.5483 32.8011 59.5371C32.5587 59.5038 32.1074 59.3317 31.7641 59.1415C31.5063 58.9988 31.3894 58.9066 31.1703 58.6732C30.9317 58.4188 30.868 58.3225 30.6611 57.9026C30.5311 57.6386 30.4148 57.3637 30.4027 57.2917C30.3907 57.2197 30.3525 57.0638 30.3179 56.9452C30.2833 56.8265 30.2545 56.6585 30.2539 56.5719C30.2533 56.4852 30.2312 56.3226 30.2048 56.2106C30.1638 56.0365 30.1568 55.0536 30.1564 49.417L30.1559 42.827L30.0761 42.7317L29.9964 42.6365L29.0334 42.6266L28.0705 42.6166L27.9722 42.7175ZM56.7739 44.6562C56.8374 44.6752 56.9904 44.707 57.1139 44.7269C57.6458 44.8127 58.2363 45.1351 58.6588 45.5704C58.955 45.8755 59.1342 46.1689 59.3437 46.6918C59.4577 46.9763 59.6167 47.6072 59.6185 47.7823C59.6191 47.8451 59.6412 47.9881 59.6675 48.1001C59.7079 48.2715 59.7155 48.8991 59.716 52.0706L59.7165 55.8374L59.6351 56.2482C59.4161 57.3541 59.0686 58.0478 58.3782 58.757C58.0233 59.1216 58.0009 59.138 57.5342 59.3748C57.0127 59.6393 56.5406 59.7908 56.2379 59.7908C56.1391 59.7908 55.9774 59.8175 55.8786 59.8501C55.6322 59.9315 54.83 59.9301 54.537 59.8478C54.4138 59.8133 54.212 59.7908 54.0244 59.7909C53.6714 59.791 53.0583 59.6544 52.2602 59.3977C51.7244 59.2253 50.9605 58.8528 50.4912 58.5351C50.0977 58.2687 49.6193 57.7966 49.5487 57.605C49.5034 57.4818 49.4986 56.9384 49.5067 52.762L49.5158 48.0578L49.5984 47.9391C49.7932 47.6595 50.785 46.7911 51.4666 46.3033C51.9336 45.9691 52.7055 45.4949 53.0372 45.3383C53.6052 45.0703 54.2983 44.8353 54.7732 44.7498C54.8823 44.7301 55.046 44.6946 55.1369 44.671C55.3407 44.6179 56.6073 44.6065 56.7739 44.6562Z" fill="#006B9C"/>
</svg>
